<svg width="384" height="385" viewBox="0 0 384 385" fill="none" xmlns="http://www.w3.org/2000/svg">
<path d="M384 294.447H0V294.639H384V294.447Z" fill="#EBEBEB"/>
<path d="M341.959 303.266H302.867V303.459H341.959V303.266Z" fill="#EBEBEB"/>
<path d="M76.5443 300.984H40.2885V301.176H76.5443V300.984Z" fill="#EBEBEB"/>
<path d="M305.663 299.69H290.924V299.883H305.663V299.69Z" fill="#EBEBEB"/>
<path d="M254.377 304.795H243.562V304.988H254.377V304.795Z" fill="#EBEBEB"/>
<path d="M236.724 304.795H209.503V304.988H236.724V304.795Z" fill="#EBEBEB"/>
<path d="M193.696 301.544H149.931V301.737H193.696V301.544Z" fill="#EBEBEB"/>
<path d="M182.027 260.106H33.7267C31.3098 260.106 29.343 258.134 29.343 255.711V46.7082C29.343 44.285 31.3098 42.313 33.7267 42.313H182.027C184.443 42.313 186.41 44.285 186.41 46.7082V255.711C186.41 258.134 184.443 260.106 182.027 260.106ZM33.7267 42.5063C31.4151 42.5063 29.535 44.3913 29.535 46.709V255.712C29.535 258.029 31.4151 259.914 33.7267 259.914H182.027C184.338 259.914 186.218 258.029 186.218 255.712V46.7082C186.218 44.3913 184.338 42.5055 182.027 42.5055L33.7267 42.5063Z" fill="#EBEBEB"/>
<path d="M348.142 260.106H199.843C197.426 260.106 195.46 258.134 195.46 255.711V46.7082C195.46 44.285 197.427 42.313 199.843 42.313H348.142C350.56 42.313 352.526 44.285 352.526 46.7082V255.711C352.527 258.134 350.56 260.106 348.142 260.106ZM199.843 42.5063C197.532 42.5063 195.652 44.3913 195.652 46.709V255.712C195.652 258.029 197.532 259.914 199.843 259.914H348.142C350.454 259.914 352.334 258.029 352.334 255.712V46.7082C352.334 44.3913 350.454 42.5055 348.142 42.5055L199.843 42.5063Z" fill="#EBEBEB"/>
<path d="M299.805 65.9636H221.623V294.447H299.805V65.9636Z" fill="#EBEBEB"/>
<path d="M294.527 289.827L294.527 70.5836L226.9 70.5836L226.9 289.827H294.527Z" fill="#FAFAFA"/>
<path d="M219.278 65.9636H141.096V294.447H219.278V65.9636Z" fill="#EBEBEB"/>
<path d="M219.278 293.549H221.624L221.624 66.8622H219.278L219.278 293.549Z" fill="#E0E0E0"/>
<path d="M214 289.827L214 70.5837L146.373 70.5837L146.373 289.827H214Z" fill="#FAFAFA"/>
<path d="M335.517 64.2519H105.384C104.821 64.2519 104.36 63.7899 104.36 63.2255C104.36 62.6611 104.821 62.1991 105.384 62.1991H335.517C336.08 62.1991 336.541 62.6611 336.541 63.2255C336.541 63.7899 336.081 64.2519 335.517 64.2519Z" fill="#E0E0E0"/>
<path d="M294.528 74.9461V70.5833L226.901 70.5833V74.9461L294.528 74.9461Z" fill="#E0E0E0"/>
<path d="M294.528 77.9409V70.5836L226.901 70.5836V77.9409L294.528 77.9409Z" fill="#E0E0E0"/>
<path d="M214.001 86.668V70.5834L146.374 70.5834V86.668L214.001 86.668Z" fill="#E0E0E0"/>
<g opacity="0.8">
<path d="M309.846 57.4081H288.187V291.638H309.846V57.4081Z" fill="#F5F5F5"/>
<path d="M304.128 57.4081H293.904V291.638H304.128V57.4081Z" fill="#F0F0F0"/>
<path d="M321.464 57.4081H299.805V291.638H321.464V57.4081Z" fill="#F5F5F5"/>
<path d="M315.747 57.4081H305.523V291.638H315.747V57.4081Z" fill="#F0F0F0"/>
<path d="M332.294 57.4081H310.635V291.638H332.294V57.4081Z" fill="#F5F5F5"/>
</g>
<g opacity="0.8">
<path d="M139.356 57.4081H107.924V291.638H139.356V57.4081Z" fill="#F5F5F5"/>
<path d="M131.059 57.4081H116.221V291.638H131.059V57.4081Z" fill="#F0F0F0"/>
<path d="M156.217 57.4081H124.785V291.638H156.217V57.4081Z" fill="#F5F5F5"/>
<path d="M147.921 57.4081H133.083V291.638H147.921V57.4081Z" fill="#F0F0F0"/>
<path d="M171.934 57.4081H140.502V291.638H171.934V57.4081Z" fill="#F5F5F5"/>
</g>
<path d="M93.0071 81.4152H42.2953V195.889H93.0071V81.4152Z" fill="#F0F0F0"/>
<path d="M93.006 195.889H94.6026L94.6026 81.4157H93.006L93.006 195.889Z" fill="#E6E6E6"/>
<path d="M88.3989 191.269L88.3989 86.0355L46.9031 86.0355L46.9031 191.269H88.3989Z" fill="#FAFAFA"/>
<path d="M96.1989 252.617H44.1423C41.7669 252.617 39.8239 250.669 39.8239 248.287C39.8239 245.906 41.7669 243.958 44.1423 243.958H96.1989C98.5743 243.958 100.517 245.906 100.517 248.287C100.517 250.669 98.5743 252.617 96.1989 252.617Z" fill="#F5F5F5"/>
<path d="M56.6615 252.617H48.1183L38.4 294.446H46.9432L56.6615 252.617Z" fill="#E6E6E6"/>
<path d="M73.7165 252.617H65.1732L60.3855 294.446H68.9288L73.7165 252.617Z" fill="#E6E6E6"/>
<path d="M83.6797 252.617H92.2237L101.941 294.446H93.398L83.6797 252.617Z" fill="#E6E6E6"/>
<path d="M192 329.222C274.239 329.222 340.907 325.318 340.907 320.503C340.907 315.688 274.239 311.785 192 311.785C109.761 311.785 43.0933 315.688 43.0933 320.503C43.0933 325.318 109.761 329.222 192 329.222Z" fill="#F5F5F5"/>
<path d="M241.595 236.835H176.055C174.819 236.835 173.808 235.821 173.808 234.582V231.991C173.808 230.752 174.819 229.738 176.055 229.738H241.595C242.831 229.738 243.842 230.752 243.842 231.991V234.582C243.842 235.822 242.831 236.835 241.595 236.835Z" fill="#263238"/>
<path d="M240.969 315.886H243.842L240.535 236.835H236.56L240.969 315.886Z" fill="#EB5A08"/>
<path opacity="0.6" d="M240.969 315.886H243.842L240.535 236.835H236.56L240.969 315.886Z" fill="white"/>
<path d="M214.523 315.886H211.65L214.957 236.835H218.932L214.523 315.886Z" fill="#EB5A08"/>
<path opacity="0.6" d="M214.523 315.886H211.65L214.957 236.835H218.932L214.523 315.886Z" fill="white"/>
<path d="M203.127 315.886H206L202.693 236.835H198.718L203.127 315.886Z" fill="#EB5A08"/>
<path opacity="0.6" d="M203.127 315.886H206L202.693 236.835H198.718L203.127 315.886Z" fill="white"/>
<path d="M176.681 315.886H173.808L177.115 236.835H181.09L176.681 315.886Z" fill="#EB5A08"/>
<path opacity="0.6" d="M176.681 315.886H173.808L177.115 236.835H181.09L176.681 315.886Z" fill="white"/>
<g opacity="0.3">
<path d="M240.538 236.833H236.558L236.744 240.193H240.679L240.538 236.833Z" fill="#407BFF"/>
<path d="M214.817 240.193H218.746L218.931 236.833H214.959L214.817 240.193Z" fill="#407BFF"/>
<path d="M198.719 236.833L198.905 240.193H202.833L202.692 236.833H198.719Z" fill="#407BFF"/>
<path d="M176.971 240.193H180.907L181.093 236.833H177.112L176.971 240.193Z" fill="#407BFF"/>
</g>
<path d="M201.281 304.269L194.777 307.731L184.537 293.862L191.042 290.4L201.281 304.269Z" fill="#FFB573"/>
<path d="M192.433 305.591L199.218 300.861C199.466 300.688 199.771 300.73 199.953 300.962L204.015 306.116C204.437 306.65 204.28 307.543 203.705 307.93C201.314 309.536 200.237 310.097 197.111 311.957C195.188 313.101 190.578 315.816 187.745 317.05C184.976 318.257 183.776 315.441 184.867 314.664C187.45 312.826 190.876 309.222 191.651 306.69C191.791 306.233 192.072 305.844 192.433 305.591Z" fill="#263238"/>
<path opacity="0.2" d="M191.046 290.403L184.539 293.867L189.472 300.543L195.832 296.879L191.046 290.403Z" fill="black"/>
<path d="M206.737 208.261C206.737 208.261 156.247 206.686 156.074 227.836C155.826 258.237 184.603 298.156 184.603 298.156L195.806 290.65C195.806 290.65 176.086 261.627 175.917 237.895C190.798 233.683 225.826 236.325 230.375 223.961C234.096 213.846 232.152 208.261 232.152 208.261H206.737Z" fill="#EB5A08"/>
<path opacity="0.2" d="M206.737 208.261C206.737 208.261 156.247 206.686 156.074 227.836C155.826 258.237 184.603 298.156 184.603 298.156L195.806 290.65C195.806 290.65 176.086 261.627 175.917 237.895C190.798 233.683 225.826 236.325 230.375 223.961C234.096 213.846 232.152 208.261 232.152 208.261H206.737Z" fill="#EB5A08"/>
<path d="M198.897 292.582L185.505 300.805L181.305 296.532L196.019 287.244L198.897 292.582Z" fill="#263238"/>
<path d="M191.025 308.139C191.582 307.75 192.12 307.205 192.484 306.8C192.529 306.75 192.541 306.678 192.513 306.615C192.485 306.553 192.424 306.514 192.356 306.513C192.07 306.513 189.548 306.533 189.012 307.338C188.887 307.524 188.87 307.741 188.961 307.966C189.112 308.336 189.35 308.553 189.668 308.609C190.074 308.681 190.556 308.466 191.025 308.139ZM191.955 306.866C191.024 307.835 190.205 308.356 189.728 308.272C189.53 308.237 189.383 308.095 189.279 307.837C189.231 307.718 189.236 307.621 189.297 307.531C189.585 307.097 190.944 306.907 191.955 306.866Z" fill="#407BFF"/>
<path d="M192.455 306.827C192.477 306.811 192.495 306.79 192.508 306.766C192.536 306.714 192.535 306.652 192.505 306.6C192.46 306.522 191.388 304.686 190.37 304.522C190.096 304.478 189.85 304.552 189.637 304.741C189.382 304.968 189.306 305.246 189.423 305.524C189.741 306.281 191.518 306.917 192.369 306.857C192.4 306.855 192.429 306.844 192.455 306.827ZM189.926 304.948C190.043 304.866 190.171 304.838 190.315 304.861C190.922 304.958 191.664 305.921 192.046 306.508C191.213 306.429 189.947 305.887 189.738 305.39C189.698 305.295 189.677 305.165 189.864 304.997C189.884 304.979 189.906 304.962 189.926 304.948Z" fill="#407BFF"/>
<path d="M189.257 312.769L181.959 312.423L180.764 295.148L188.062 295.494L189.257 312.769Z" fill="#FFB573"/>
<path d="M181.792 311.172L190.052 310.91C190.353 310.901 190.586 311.102 190.614 311.397L191.221 317.937C191.284 318.615 190.668 319.279 189.976 319.289C187.098 319.331 185.719 319.204 182.086 319.32C179.851 319.391 175.454 319.724 172.391 319.338C169.394 318.959 169.796 315.923 171.129 315.813C174.285 315.554 178.515 313.367 180.541 311.667C180.905 311.358 181.352 311.186 181.792 311.172Z" fill="#263238"/>
<path d="M179.226 312.538C179.905 312.517 180.652 312.353 181.177 312.213C181.243 312.196 181.292 312.141 181.303 312.074C181.313 312.006 181.283 311.94 181.226 311.903C180.986 311.747 178.86 310.386 177.973 310.768C177.767 310.857 177.635 311.028 177.589 311.267C177.515 311.661 177.596 311.972 177.833 312.193C178.135 312.474 178.657 312.556 179.226 312.538ZM180.698 311.979C179.391 312.283 178.421 312.273 178.067 311.942C177.92 311.805 177.874 311.605 177.926 311.332C177.949 311.205 178.007 311.127 178.108 311.085C178.585 310.879 179.828 311.461 180.698 311.979Z" fill="#407BFF"/>
<path d="M181.139 312.218C181.166 312.217 181.193 312.21 181.217 312.196C181.268 312.168 181.301 312.115 181.304 312.055C181.309 311.965 181.407 309.839 180.642 309.146C180.436 308.959 180.189 308.886 179.908 308.929C179.571 308.98 179.356 309.172 179.303 309.468C179.158 310.278 180.303 311.782 181.05 312.196C181.078 312.212 181.108 312.219 181.139 312.218ZM180.04 309.262C180.182 309.257 180.305 309.303 180.412 309.401C180.869 309.815 180.968 311.027 180.969 311.728C180.313 311.206 179.546 310.06 179.641 309.529C179.658 309.428 179.711 309.307 179.959 309.269C179.988 309.265 180.014 309.263 180.04 309.262Z" fill="#407BFF"/>
<path opacity="0.2" d="M188.065 295.499L180.763 295.153L181.451 305.031L188.727 305.019L188.065 295.499Z" fill="black"/>
<path d="M224.698 208.261C224.698 208.261 171.869 213.269 173.793 229.211C176.568 252.206 177.94 301.764 177.94 301.764L191.404 302.294C191.404 302.294 197.11 257.595 194.158 234.048C207.829 234.048 241.297 235.035 244.349 226.776C247.046 219.48 246.083 208.26 246.083 208.26H224.698V208.261Z" fill="#EB5A08"/>
<path d="M192.891 303.127L176.731 302.324L176.151 295.272L193.871 296.499L192.891 303.127Z" fill="#263238"/>
<path d="M212.972 161.554C212.874 162.85 212.771 163.97 212.625 165.16C212.486 166.334 212.327 167.501 212.142 168.667C211.781 171 211.327 173.323 210.787 175.652C209.662 180.309 208.293 184.961 205.722 189.682C205.045 190.865 204.31 192.039 203.353 193.213C202.414 194.37 201.19 195.592 199.866 196.469C197.191 198.283 194.147 199.146 191.36 199.345C188.552 199.559 185.921 199.215 183.461 198.595C182.23 198.283 181.038 197.898 179.88 197.443C179.3 197.22 178.732 196.969 178.168 196.707C177.585 196.442 177.085 196.167 176.44 195.819L178.46 190.665L179.928 190.851L181.466 191.009C182.491 191.09 183.507 191.14 184.501 191.143C186.488 191.149 188.397 190.952 190.042 190.507C191.69 190.05 193.014 189.36 193.951 188.468C194.438 188.008 194.789 187.596 195.223 186.971C195.648 186.365 196.044 185.582 196.437 184.786C197.212 183.147 197.878 181.274 198.43 179.312C199.01 177.36 199.483 175.317 199.903 173.244C200.337 171.173 200.686 169.06 201.019 166.941L201.473 163.753C201.605 162.708 201.757 161.588 201.857 160.64L212.972 161.554Z" fill="#FFB573"/>
<path d="M213.019 155.28C207.618 150.048 200.961 153.137 198.305 162.936C195.65 172.735 195.236 179.008 195.236 179.008L212.339 182.555C215.448 173.202 218.551 160.639 213.019 155.28Z" fill="#263238"/>
<path opacity="0.3" d="M207.511 165.984C208.733 164.877 212.208 169.821 214.325 175.936C213.727 178.222 213.04 180.472 212.343 182.559L202.055 180.426C202.878 174.33 204.77 168.461 207.511 165.984Z" fill="black"/>
<path d="M177.297 188.293L173.49 186.824L173.323 194.994C173.323 194.994 179.777 197.792 181.09 194.578L180.627 192.54C180.23 190.793 179.001 189.224 177.297 188.293Z" fill="#FFB573"/>
<path d="M168.929 187.038L166.663 193.895L173.323 194.994L173.49 186.824L168.929 187.038Z" fill="#FFB573"/>
<path d="M174.737 192.481C174.577 192.481 174.423 192.394 174.344 192.241L167.482 179.002C167.37 178.785 167.455 178.517 167.671 178.404C167.889 178.292 168.156 178.376 168.268 178.593L175.129 191.832C175.241 192.05 175.157 192.318 174.94 192.431C174.875 192.465 174.806 192.481 174.737 192.481Z" fill="#263238"/>
<path d="M212.385 150.033L220.583 147.688L231.125 147.189C234.414 147.034 237.386 149.104 238.413 152.241C240.424 158.381 242.273 167.278 243.619 174.955C245.129 183.563 245.916 196.501 246.082 208.261H206.736C205.838 183.737 202.724 169.238 201.344 161.215C200.788 157.982 202.445 154.78 205.399 153.369L212.385 150.033Z" fill="#263238"/>
<path opacity="0.3" d="M243.616 174.956C242.557 168.914 241.19 162.11 239.671 156.494C232.658 155.306 229.26 170.726 231.342 178.372C233.424 186.018 244.527 181.384 244.527 181.384C244.259 179.064 243.955 176.901 243.616 174.956Z" fill="black"/>
<path d="M219.188 131.679C220.874 135.836 219.859 143.461 216.528 141.303C213.197 139.147 218.159 129.141 219.188 131.679Z" fill="#263238"/>
<path d="M217.315 134.337L214.128 139.213L209.792 145.858C210.089 146.014 210.752 147.056 211.132 147.825C211.924 149.425 212.579 150.623 209.228 152.914C208.51 153.405 208.059 154.263 208.222 155.118C208.419 156.156 209.453 157.165 213.07 156.524C217.26 155.783 220.063 153.563 222.149 151.472C223.354 150.264 223.077 149.354 221.917 148.103C218.627 144.558 217.644 138.9 217.315 134.337Z" fill="#FFB573"/>
<path opacity="0.2" d="M210.859 144.225L213.519 139.489C213.574 139.606 213.637 139.743 213.701 139.879C213.909 140.387 214.117 141.022 214.27 141.693C214.759 143.798 213.13 146.8 211.338 148.234C211.266 148.098 211.202 147.962 211.13 147.826C210.795 147.137 210.225 146.229 209.9 145.939C209.864 145.903 209.828 145.875 209.791 145.857L210.859 144.225Z" fill="black"/>
<path d="M194.908 128.591C193.921 130.83 197.433 137.177 201.449 134.611C205.465 132.044 196.659 124.621 194.908 128.591Z" fill="#263238"/>
<path d="M214.277 157.89C214.17 157.89 214.075 157.811 214.058 157.703C213.761 155.799 212.536 154.592 211.114 153.195C209.334 151.442 207.315 149.455 206.65 145.569C206.63 145.448 206.709 145.334 206.83 145.313C206.958 145.29 207.066 145.374 207.086 145.494C207.726 149.238 209.691 151.172 211.423 152.877C212.839 154.271 214.175 155.586 214.495 157.634C214.514 157.755 214.432 157.869 214.311 157.888C214.3 157.889 214.289 157.89 214.277 157.89Z" fill="white"/>
<path d="M215.908 126.336C217.41 133.312 218.645 137.323 216.157 141.762C212.416 148.438 203.043 147.53 199.48 141.11C196.274 135.332 194.356 124.896 200.324 120.391C206.205 115.954 214.406 119.361 215.908 126.336Z" fill="#FFB573"/>
<path d="M217.975 131.126C215.58 134.536 209.298 128.272 209.81 124.068C203.573 127.627 196.8 132.381 192.688 128.375C187.945 123.754 189.245 117.134 194.803 116.542C193.819 118.465 199.387 119.319 202.386 116.345C207.415 111.354 215.362 112.4 215.214 116.443C219.05 114.915 223.238 123.63 217.975 131.126Z" fill="#263238"/>
<path d="M214.481 117.571C215.965 116.465 214.975 112.515 211.537 111.354C214.807 111.778 218.194 114.223 214.481 117.571Z" fill="#263238"/>
<path d="M220.191 130.815C220.269 132.55 219.617 134.166 218.737 135.214C217.414 136.788 215.374 135.532 214.902 133.568C214.476 131.799 215.028 129.069 216.76 128.223C218.467 127.39 220.102 128.832 220.191 130.815Z" fill="#FFB573"/>
<path d="M205.926 131.99C206.111 132.556 205.966 133.123 205.602 133.257C205.238 133.391 204.793 133.041 204.607 132.475C204.422 131.91 204.568 131.343 204.932 131.209C205.296 131.075 205.741 131.425 205.926 131.99Z" fill="#263238"/>
<path d="M199.63 134.307C199.815 134.873 199.67 135.44 199.306 135.574C198.942 135.708 198.496 135.358 198.311 134.792C198.126 134.226 198.271 133.66 198.636 133.526C199 133.392 199.445 133.741 199.63 134.307Z" fill="#263238"/>
<path d="M201.783 134.008C201.783 134.008 201.826 137.187 201.198 139.01C202.327 139.422 203.572 138.448 203.572 138.448L201.783 134.008Z" fill="#ED893E"/>
<path d="M205.157 141.552C207.367 140.786 208.125 138.977 208.159 138.893C208.195 138.803 208.153 138.702 208.063 138.665C207.974 138.628 207.873 138.671 207.836 138.76C207.827 138.781 206.966 140.842 204.417 141.397C204.322 141.417 204.263 141.51 204.284 141.605C204.304 141.698 204.397 141.759 204.492 141.738C204.727 141.688 204.948 141.625 205.157 141.552Z" fill="#263238"/>
<path d="M206.502 129.546C206.553 129.519 206.597 129.479 206.63 129.427C206.734 129.265 206.688 129.048 206.526 128.944C204.923 127.912 203.456 128.593 203.395 128.622C203.224 128.685 203.147 128.913 203.23 129.087C203.313 129.261 203.52 129.335 203.694 129.253C203.754 129.225 204.89 128.721 206.149 129.532C206.259 129.603 206.395 129.604 206.502 129.546Z" fill="#263238"/>
<path d="M198.381 130.654C198.387 130.597 198.381 130.537 198.357 130.48C198.283 130.302 198.079 130.217 197.901 130.292C196.142 131.024 195.864 132.621 195.853 132.688C195.806 132.864 195.95 133.058 196.14 133.089C196.33 133.12 196.509 132.991 196.54 132.801C196.553 132.735 196.786 131.512 198.168 130.937C198.29 130.886 198.367 130.775 198.381 130.654Z" fill="#263238"/>
<path d="M237.058 152.479C237.798 153.725 238.441 154.845 239.077 156.047C239.71 157.232 240.327 158.423 240.93 159.623C242.147 162.019 243.246 164.48 244.297 166.989C245.318 169.511 246.281 172.085 247.081 174.785C247.863 177.496 248.558 180.294 248.823 183.451C248.94 185.035 248.966 186.716 248.649 188.613C248.506 189.493 248.201 190.721 247.63 191.856C247.074 192.998 246.238 194.074 245.287 194.891C244.335 195.721 243.301 196.294 242.321 196.693C241.336 197.093 240.391 197.33 239.497 197.483C237.707 197.79 236.097 197.738 234.575 197.617C233.053 197.491 231.616 197.237 230.228 196.913C228.839 196.596 227.498 196.212 226.189 195.771C223.554 194.892 221.108 193.865 218.617 192.559L220.564 187.376C225.338 188.281 230.469 189.123 234.774 188.859C235.83 188.796 236.817 188.612 237.556 188.38C238.302 188.148 238.718 187.803 238.687 187.696C238.681 187.634 238.641 187.659 238.621 187.622C238.601 187.582 238.598 187.538 238.64 187.139C238.696 186.472 238.644 185.543 238.49 184.556C238.187 182.562 237.562 180.324 236.775 178.107C235.989 175.879 235.079 173.622 234.067 171.386C233.084 169.136 231.983 166.911 230.885 164.678C230.329 163.564 229.758 162.456 229.173 161.358L227.437 158.134L237.058 152.479Z" fill="#FFB573"/>
<path d="M233.46 147.311C226.034 146.179 222.39 152.562 225.882 162.093C229.374 171.625 232.659 176.981 232.659 176.981L248.653 169.946C245.787 160.514 241.063 148.47 233.46 147.311Z" fill="#263238"/>
<path d="M216.456 186.637L213.026 187.673L217.886 194.594C217.886 194.594 225.095 192.006 223.619 188.865L221.807 187.831C220.254 186.943 218.291 186.007 216.456 186.637Z" fill="#FFB573"/>
<path d="M209.996 192.444L213.426 195.883L217.886 194.594L213.026 187.673L209.996 192.444Z" fill="#FFB573"/>
<path d="M217.481 133.019C218.091 133.019 218.584 132.419 218.584 131.679C218.584 130.939 218.091 130.339 217.481 130.339C216.872 130.339 216.379 130.939 216.379 131.679C216.379 132.419 216.872 133.019 217.481 133.019Z" fill="white"/>
<path d="M218.398 135.221L217.758 135.2L217.366 132.111L218.584 131.837L218.398 135.221Z" fill="white"/>
<path d="M222.808 193.422C220.478 193.422 218.461 193.081 217.219 191.957C216.332 191.155 215.882 189.987 215.882 188.486C215.882 184.778 216.65 181.769 217.327 179.117C218.399 174.921 219.245 171.607 216.677 167.523C212.595 161.029 213.81 151.95 216.667 146.264C218.856 141.909 218.112 137.09 217.832 135.276C217.796 135.039 217.768 134.856 217.755 134.736C217.743 134.614 217.832 134.505 217.953 134.493C218.071 134.486 218.183 134.57 218.196 134.691C218.207 134.807 218.234 134.982 218.269 135.209C218.555 137.061 219.315 141.983 217.063 146.465C214.26 152.043 213.06 160.94 217.052 167.289C219.721 171.533 218.81 175.099 217.756 179.227C217.084 181.855 216.324 184.834 216.324 188.487C216.324 189.877 216.713 190.904 217.515 191.628C219.583 193.499 224.162 193.024 228.591 192.566C230.57 192.361 232.617 192.149 234.424 192.149C234.546 192.149 234.645 192.248 234.645 192.371C234.645 192.493 234.546 192.592 234.424 192.592C232.64 192.592 230.605 192.804 228.637 193.007C226.649 193.213 224.633 193.422 222.808 193.422Z" fill="white"/>
<path d="M243.626 191.778H234.884C234.629 191.778 234.423 191.985 234.423 192.24V192.856C234.423 193.112 234.629 193.318 234.884 193.318H243.626C243.881 193.318 244.087 193.111 244.087 192.856V192.24C244.087 191.985 243.881 191.778 243.626 191.778Z" fill="white"/>
<path d="M298.475 198.447H85.5252C84.1183 198.447 82.9678 197.293 82.9678 195.883C82.9678 194.474 84.1183 193.319 85.5252 193.319H298.475C299.882 193.319 301.032 194.473 301.032 195.883C301.032 197.293 299.882 198.447 298.475 198.447Z" fill="#EB5A08"/>
<path opacity="0.3" d="M298.475 198.447H248.623C247.217 198.447 246.066 197.293 246.066 195.883C246.066 194.474 247.217 193.319 248.623 193.319H298.475C299.882 193.319 301.032 194.473 301.032 195.883C301.032 197.293 299.882 198.447 298.475 198.447Z" fill="#263238"/>
<path d="M296.127 319.259H301.032L295.386 198.447H288.599L296.127 319.259Z" fill="#263238"/>
<path opacity="0.1" d="M296.127 319.259H301.032L295.386 198.447H288.599L296.127 319.259Z" fill="white"/>
<path d="M250.971 319.259H246.066L251.712 198.447H258.5L250.971 319.259Z" fill="#263238"/>
<path opacity="0.2" d="M250.971 319.259H246.066L251.712 198.447H258.5L250.971 319.259Z" fill="white"/>
<path d="M133.029 319.259H137.934L132.288 198.447H125.5L133.029 319.259Z" fill="#263238"/>
<path opacity="0.1" d="M133.029 319.259H137.934L132.288 198.447H125.5L133.029 319.259Z" fill="white"/>
<path d="M87.873 319.259H82.9678L88.6141 198.447H95.401L87.873 319.259Z" fill="#263238"/>
<path opacity="0.2" d="M87.873 319.259H82.9678L88.6141 198.447H95.401L87.873 319.259Z" fill="white"/>
<path d="M253.822 204.874H90.0442V214.999H253.822V204.874Z" fill="#263238"/>
<path opacity="0.2" d="M253.822 204.874H90.0442V214.999H253.822V204.874Z" fill="white"/>
<path d="M116.989 186.506C116.396 186.506 115.914 186.988 115.914 187.583V192.242C115.914 192.836 116.395 193.319 116.989 193.319H151.82C152.013 193.319 152.17 193.162 152.17 192.968V186.857C152.17 186.663 152.013 186.506 151.82 186.506H116.989Z" fill="#EB5A08"/>
<path opacity="0.9" d="M152.17 187.155H137.603C137.261 187.155 136.984 187.433 136.984 187.776V192.047C136.984 192.391 137.261 192.669 137.603 192.669H152.17V187.155Z" fill="white"/>
<path d="M135.202 186.506H100.02C99.4276 186.506 98.946 186.988 98.946 187.583V192.242C98.946 192.836 99.4268 193.319 100.02 193.319H135.202C135.795 193.319 136.276 192.837 136.276 192.242V187.583C136.276 186.988 135.795 186.506 135.202 186.506Z" fill="#EB5A08"/>
<path opacity="0.2" d="M135.202 186.506H100.02C99.4276 186.506 98.946 186.988 98.946 187.583V192.242C98.946 192.836 99.4268 193.319 100.02 193.319H135.202C135.795 193.319 136.276 192.837 136.276 192.242V187.583C136.276 186.988 135.795 186.506 135.202 186.506Z" fill="#EB5A08"/>
<path opacity="0.5" d="M117.899 186.506H112.566C112.324 186.506 112.128 186.702 112.128 186.944V192.879C112.128 193.121 112.324 193.319 112.566 193.319H117.899C118.141 193.319 118.337 193.121 118.337 192.879V186.944C118.337 186.703 118.141 186.506 117.899 186.506Z" fill="#EB5A08"/>
<path opacity="0.5" d="M125.608 186.506H120.275C120.033 186.506 119.837 186.702 119.837 186.944V192.879C119.837 193.121 120.033 193.319 120.275 193.319H125.608C125.85 193.319 126.046 193.121 126.046 192.879V186.944C126.046 186.703 125.85 186.506 125.608 186.506Z" fill="#EB5A08"/>
<path d="M110.69 178.119C110.097 178.119 109.616 178.601 109.616 179.197V185.429C109.616 186.024 110.097 186.506 110.69 186.506H148.421C148.615 186.506 148.772 186.349 148.772 186.155V178.471C148.772 178.277 148.615 178.119 148.421 178.119H110.69Z" fill="#EB5A08"/>
<path opacity="0.9" d="M148.771 178.769H131.305C130.962 178.769 130.685 179.047 130.685 179.39V185.235C130.685 185.578 130.963 185.856 131.305 185.856H148.772L148.771 178.769Z" fill="white"/>
<path d="M128.903 178.119H99.317C98.7233 178.119 98.2426 178.601 98.2426 179.197V185.429C98.2426 186.023 98.7233 186.506 99.317 186.506H128.903C129.496 186.506 129.978 186.024 129.978 185.429V179.197C129.978 178.601 129.496 178.119 128.903 178.119Z" fill="#EB5A08"/>
<path opacity="0.2" d="M128.903 178.119H99.317C98.7233 178.119 98.2426 178.601 98.2426 179.197V185.429C98.2426 186.023 98.7233 186.506 99.317 186.506H128.903C129.496 186.506 129.978 186.024 129.978 185.429V179.197C129.978 178.601 129.496 178.119 128.903 178.119Z" fill="white"/>
<path opacity="0.6" d="M126.129 179.783H104.467C104.105 179.783 103.813 180.077 103.813 180.439V184.186C103.813 184.548 104.106 184.842 104.467 184.842H126.129C126.491 184.842 126.784 184.547 126.784 184.186V180.439C126.784 180.077 126.49 179.783 126.129 179.783Z" fill="#EB5A08"/>
<path d="M121.76 174.102C121.167 174.102 120.686 174.386 120.686 174.737V177.484C120.686 177.835 121.167 178.119 121.76 178.119H156.591C156.785 178.119 156.942 178.027 156.942 177.912V174.309C156.942 174.195 156.785 174.102 156.591 174.102H121.76Z" fill="#EB5A08"/>
<path opacity="0.9" d="M156.942 174.485H142.231C141.969 174.485 141.755 174.698 141.755 174.963V177.259C141.755 177.523 141.969 177.737 142.231 177.737H156.942V174.485Z" fill="white"/>
<path d="M140.222 174.102H104.542C104.087 174.102 103.718 174.472 103.718 174.929V177.292C103.718 177.748 104.087 178.119 104.542 178.119H140.222C140.678 178.119 141.047 177.748 141.047 177.292V174.929C141.048 174.472 140.678 174.102 140.222 174.102Z" fill="#EB5A08"/>
<path opacity="0.2" d="M140.222 174.102H104.542C104.087 174.102 103.718 174.472 103.718 174.929V177.292C103.718 177.748 104.087 178.119 104.542 178.119H140.222C140.678 178.119 141.047 177.748 141.047 177.292V174.929C141.048 174.472 140.678 174.102 140.222 174.102Z" fill="#EB5A08"/>
<path opacity="0.5" d="M109.027 174.102H107.912C107.823 174.102 107.75 174.174 107.75 174.264V177.957C107.75 178.046 107.823 178.119 107.912 178.119H109.027C109.116 178.119 109.189 178.047 109.189 177.957V174.264C109.189 174.175 109.116 174.102 109.027 174.102Z" fill="#EB5A08"/>
<path opacity="0.5" d="M137.997 174.102H136.904C136.815 174.102 136.743 174.174 136.743 174.263V177.958C136.743 178.046 136.815 178.119 136.904 178.119H137.997C138.086 178.119 138.158 178.046 138.158 177.958V174.263C138.158 174.174 138.086 174.102 137.997 174.102Z" fill="#EB5A08"/>
<path d="M115.462 168.297C114.868 168.297 114.387 168.581 114.387 168.932V173.467C114.387 173.818 114.868 174.102 115.462 174.102H153.193C153.386 174.102 153.543 174.01 153.543 173.895V168.504C153.543 168.39 153.386 168.297 153.193 168.297H115.462Z" fill="#EB5A08"/>
<path opacity="0.9" d="M153.542 168.679H135.932C135.669 168.679 135.456 168.893 135.456 169.157V173.242C135.456 173.506 135.669 173.72 135.932 173.72H153.542V168.679Z" fill="white"/>
<path d="M133.925 168.297H103.839C103.384 168.297 103.014 168.667 103.014 169.124V173.275C103.014 173.731 103.384 174.102 103.839 174.102H133.925C134.38 174.102 134.749 173.731 134.749 173.275V169.124C134.749 168.667 134.38 168.297 133.925 168.297Z" fill="#EB5A08"/>
<path opacity="0.1" d="M133.925 168.297H103.839C103.384 168.297 103.014 168.667 103.014 169.124V173.275C103.014 173.731 103.384 174.102 103.839 174.102H133.925C134.38 174.102 134.749 173.731 134.749 173.275V169.124C134.749 168.667 134.38 168.297 133.925 168.297Z" fill="black"/>
<path d="M199.618 192.036H167.919C167.568 192.036 167.28 192.325 167.28 192.677C167.28 193.03 167.568 193.318 167.919 193.318H199.618C199.97 193.318 200.257 193.03 200.257 192.677C200.258 192.325 199.97 192.036 199.618 192.036Z" fill="white"/>
<path d="M261.627 190.513H282.454L284.337 193.244H259.745L261.627 190.513Z" fill="#263238"/>
<path d="M293.79 143.861C293.79 145.413 292.536 146.67 290.988 146.67C289.441 146.67 288.187 145.413 288.187 143.861C288.187 142.31 289.441 141.052 290.988 141.052C292.536 141.052 293.79 142.31 293.79 143.861Z" fill="black"/>
<path d="M272.729 192.361C272.615 192.361 272.498 192.338 272.386 192.29C271.935 192.1 271.725 191.578 271.915 191.127L291.981 143.516C292.171 143.064 292.689 142.85 293.141 143.044C293.592 143.234 293.802 143.755 293.612 144.206L273.545 191.818C273.402 192.157 273.075 192.361 272.729 192.361Z" fill="#263238"/>
<path d="M292.795 144.748C292.61 144.748 292.424 144.691 292.265 144.572L255.819 117.182C255.428 116.888 255.348 116.332 255.643 115.94C255.934 115.548 256.49 115.468 256.881 115.762L293.327 143.152C293.719 143.446 293.798 144.002 293.503 144.394C293.331 144.626 293.064 144.748 292.795 144.748Z" fill="#263238"/>
<path d="M295.598 143.861C295.598 145.413 294.343 146.67 292.796 146.67C291.249 146.67 289.994 145.413 289.994 143.861C289.994 142.31 291.249 141.052 292.796 141.052C294.344 141.052 295.598 142.31 295.598 143.861Z" fill="#263238"/>
<path d="M256.351 119.274C257.895 119.274 259.146 118.019 259.146 116.471C259.146 114.923 257.895 113.668 256.351 113.668C254.807 113.668 253.555 114.923 253.555 116.471C253.555 118.019 254.807 119.274 256.351 119.274Z" fill="#263238"/>
<path d="M252.432 129.28C249.986 131.732 246.021 131.732 243.575 129.28C241.129 126.827 241.129 122.851 243.575 120.4C246.021 117.947 249.987 117.947 252.432 120.4C254.878 122.851 254.878 126.827 252.432 129.28Z" fill="#407BFF"/>
<path opacity="0.7" d="M252.432 129.28C249.986 131.732 246.021 131.732 243.575 129.28C241.129 126.827 241.129 122.851 243.575 120.4C246.021 117.947 249.987 117.947 252.432 120.4C254.878 122.851 254.878 126.827 252.432 129.28Z" fill="white"/>
<path d="M256.351 116.471C251.107 111.213 242.606 111.214 237.363 116.471L256.351 135.508C261.594 130.252 261.594 121.729 256.351 116.471Z" fill="#263238"/>
<g opacity="0.2">
<path d="M237.362 116.472L157.621 193.319H239.422L256.351 135.509L237.362 116.472Z" fill="#EB5A08"/>
<path opacity="0.7" d="M237.362 116.472L157.621 193.319H239.422L256.351 135.509L237.362 116.472Z" fill="white"/>
</g>
</svg>
